<svg width="40" height="40" viewBox="0 0 40 40" fill="none" xmlns="http://www.w3.org/2000/svg">
<path fill-rule="evenodd" clip-rule="evenodd" d="M20.1167 0C31.0974 0 39.9991 8.90163 39.9991 19.8824C39.9991 30.8631 31.0974 39.7647 20.1167 39.7647C9.13601 39.7647 0.234375 30.8631 0.234375 19.8824C0.234375 8.90163 9.13601 0 20.1167 0ZM23.0904 7.75896C19.4403 7.75896 16.9416 9.92833 16.9416 13.9124V17.3455H12.8133V22.0006H16.9416V33.9456H21.8784V22.0006H25.9961L26.6126 17.3455H21.8784V14.3733C21.8784 13.0255 22.2629 12.107 24.2478 12.107L26.7794 12.1061V7.9425C26.3414 7.88575 24.8387 7.75896 23.0904 7.75896Z" fill="#121212"/>
</svg>
